<svg xmlns="http://www.w3.org/2000/svg" xmlns:xlink="http://www.w3.org/1999/xlink" viewBox="0 0 841.89 597.25"><defs><style>.cls-1,.cls-2,.cls-4{fill:none;}.cls-2,.cls-3,.cls-4{stroke:#1d1d1b;stroke-miterlimit:10;}.cls-2{stroke-width:3px;}.cls-3,.cls-5{fill:#1d1d1b;}.cls-4{stroke-width:2px;}</style></defs><title>muse journo</title><g id="BG"><image width="2520" height="3600" transform="matrix(0, 0.24, -0.23, 0, 841.89, 3.04)" xlink:href="../../../Downloads/W80272 AURA Woven Fabrics Almond from the Thibaut Kaleidoscope collection.jpg"/></g><g id="logo"><polygon class="cls-1" points="411.71 215.41 411.71 330.02 417.03 329.73 417.03 215.41 411.71 215.41"/><polygon class="cls-1" points="474.47 215.41 425.7 215.41 447.81 253.7 474.47 215.41"/><path d="M479.76,212.36h13.88V199.51H362.21v-.07a30.78,30.78,0,1,0,17.85,55.11,30.41,30.41,0,0,0,8.38-10l-11.52-6.09a17.76,17.76,0,1,1-15.13-26v-.1h45V337.75l-.23.43-.51,1-.6.93-.29.47-.33.43-.66.87-.73.8-.36.4-.4.36-.79.72-.84.63-.42.32-.45.27-.88.55-.94.46c-.15.07-.3.16-.46.22l-.49.18-1,.36-1,.26-.5.14-.51.07-1,.17a8.88,8.88,0,0,1-1,.05c-.34,0-.68.05-1,0a16.22,16.22,0,0,1-4.08-.64,18.33,18.33,0,0,1-7.42-4.18,22.23,22.23,0,0,1-5.18-7.18,18.34,18.34,0,0,1-.83-2.1l-.19-.52c-.06-.18-.1-.37-.15-.55l-.29-1.1a21.14,21.14,0,0,1-.64-4.47,22,22,0,0,1,1.35-8.68l-13.47-4.89a36.18,36.18,0,0,0-2,14.36,34.52,34.52,0,0,0,1.16,7.09l.49,1.73c.09.28.16.57.26.86l.32.84a31,31,0,0,0,1.39,3.32,36.06,36.06,0,0,0,8.7,11.51,31.86,31.86,0,0,0,13,6.91,29.76,29.76,0,0,0,7.48,1c.63,0,1.27-.05,1.9-.09s1.27-.05,1.89-.16l1.87-.33.93-.17.91-.25,1.82-.54c.59-.21,1.18-.45,1.77-.68l.87-.36c.29-.13.57-.28.85-.42l1.68-.88c.54-.32,1.06-.67,1.59-1l.79-.52c.25-.18.49-.38.74-.57l1.46-1.17,1.36-1.28.67-.65.61-.69,1.21-1.4,1.09-1.48.54-.74.48-.78.94-1.57.81-1.62.4-.81.34-.84.66-1.68a36.39,36.39,0,0,0,1.93-14h0v-113l24.49,42.42-.05,0,1.81,0,1.68,0,.08.05,0-.05h0l25.9-37.21v92.07H460.09v4.34h32.25v-4.34H479.62V212.57Zm-5.29,0-26.66,38.3-22.11-38.3ZM411.71,327V212.36H417V326.68Z" transform="translate(0 3.04)"/></g><g id="twigs"><path class="cls-2" d="M560.25,305.68c-18,62.58-76.76,108.43-146.42,108.43-70.07,0-129.08-46.4-146.74-109.54" transform="translate(0 3.04)"/><path class="cls-2" d="M262.57,281.14a148.54,148.54,0,0,1-.87-16c0-45.26,20.61-85.8,53.12-113.12" transform="translate(0 3.04)"/><circle class="cls-3" cx="319" cy="408.44" r="4.17"/><circle class="cls-3" cx="331.2" cy="369.81" r="4.17"/><circle class="cls-3" cx="353.59" cy="376.45" r="4.17"/><circle class="cls-3" cx="395.68" cy="396.74" r="5.38"/><circle class="cls-3" cx="361.29" cy="425.97" r="4.17"/><circle class="cls-3" cx="373.67" cy="434.3" r="4.17"/><circle class="cls-3" cx="392.3" cy="430.13" r="5.47"/><circle class="cls-3" cx="410.54" cy="453.06" r="5.34"/><circle class="cls-3" cx="439.29" cy="388.04" r="4.17"/><circle class="cls-3" cx="392.3" cy="410.19" r="4.17"/><circle class="cls-3" cx="476.21" cy="385.76" r="4.17"/><circle class="cls-3" cx="452.11" cy="434.3" r="4.17"/><circle class="cls-3" cx="445.97" cy="458.41" r="4.17"/><circle class="cls-3" cx="461.67" cy="470.78" r="4.17"/><circle class="cls-3" cx="485.17" cy="438.47" r="4.17"/><path class="cls-4" d="M304.38,366.77s-3.59-4.13-2.61-13.57-1.63-14-1.63-14l6.52,8.79s7.49,14.45,2.93,18.79S304.38,366.77,304.38,366.77Z" transform="translate(0 3.04)"/><path class="cls-4" d="M319.33,379.8s-3.1-3.57-2.25-11.75-1.41-12.12-1.41-12.12l5.64,7.61s6.48,12.5,2.53,16.26S319.33,379.8,319.33,379.8Z" transform="translate(0 3.04)"/><path class="cls-4" d="M277.41,329.64s-2.53-7.22,4.69-15.17,6.35-14.67,6.35-14.67l3.81,14.34s1.69,20.55-7.46,20.37S277.41,329.64,277.41,329.64Z" transform="translate(0 3.04)"/><path class="cls-4" d="M320.84,383.42s-7.94,3.43-11.35,7.88l-3.41,4.45s-8.63,1.88-13.66-2.32-12.6-1.84-12.6-1.84,6.93-5.09,12.79-3.53,9.21-1.12,9.21-1.12l5.35-4s6.64-3.55,10.15-1.54Z" transform="translate(0 3.04)"/><path class="cls-4" d="M307.64,372.66s-6.26.83-9.23,2.88l-3,2s-6.62-.15-10-3.25-9.23-2.83-9.23-2.83,5.66-1.91,9.89-.19,7,.66,7,.66l4.38-1.51s5.3-1.08,7.73.56Z" transform="translate(0 3.04)"/><path class="cls-4" d="M294.57,358s-13.81,3.89-18.82-4.09-10.08-11.17-10.08-11.17-9.09.72-11,2.45,6.46-7.21,6.46-7.21,8.16-5.45,12.18-.67,4.55,8.22,7.89,9.67l8.6,3.78Z" transform="translate(0 3.04)"/><path class="cls-4" d="M267.37,303.64s2.08-9.56,7.57-11.63-13.39-10.87-13.39-10.87-11.53,12.77-7.25,14.5S267.37,303.64,267.37,303.64Z" transform="translate(0 3.04)"/><path class="cls-4" d="M268.59,313.05s-4.61-9.37,1.91-16.21,9.45-8.47,9.45-8.47,5.21,12.71,1.62,16.62-2.34,5.29-7.66,6.67Z" transform="translate(0 3.04)"/><path class="cls-4" d="M268.55,313.06s1.1-10.38-7.37-14.56-11.78-4.71-11.78-4.71-.52,13.73,4.18,16.16,4,4.17,9.5,3.64Z" transform="translate(0 3.04)"/><path class="cls-5" d="M269,311.36a26.58,26.58,0,0,0,3.59-2.09,21.36,21.36,0,0,0,3.24-2.68,14.61,14.61,0,0,0,2.52-3.37,9.91,9.91,0,0,0,1-4.1,9.9,9.9,0,0,1-.59,4.3,15.13,15.13,0,0,1-2.22,3.83,23.14,23.14,0,0,1-3.06,3.2,26.92,26.92,0,0,1-3.6,2.68Z" transform="translate(0 3.04)"/><path class="cls-5" d="M266.63,314.19a26.91,26.91,0,0,1-4.2-1.56,23,23,0,0,1-3.85-2.22,14.93,14.93,0,0,1-3.2-3.05,10,10,0,0,1-1.77-4,9.79,9.79,0,0,0,2.16,3.64,14.2,14.2,0,0,0,3.35,2.53,21.6,21.6,0,0,0,3.86,1.66,24.82,24.82,0,0,0,4,1Z" transform="translate(0 3.04)"/><path class="cls-5" d="M269.32,311.37a27.83,27.83,0,0,0,3.06-3.71,26.41,26.41,0,0,0,2.38-4.25,18.53,18.53,0,0,0,1.34-4.69,14.88,14.88,0,0,0-.2-4.93,15.37,15.37,0,0,1,.7,5,19.83,19.83,0,0,1-.9,5,27.1,27.1,0,0,1-2.05,4.69,28.81,28.81,0,0,1-2.88,4.3Z" transform="translate(0 3.04)"/><path class="cls-5" d="M266.59,314a38.74,38.74,0,0,1-4.12-3.13,32.6,32.6,0,0,1-3.55-3.6,21.42,21.42,0,0,1-2.71-4.23l-.49-1.15c-.17-.38-.25-.8-.38-1.19a6.35,6.35,0,0,1-.28-1.22l-.1-.61,0-.31c0-.11,0-.21-.26-.29l.41,0c-.25.13-.16.22-.15.33l.05.3.11.62a6.22,6.22,0,0,0,.31,1.2,13.63,13.63,0,0,0,.91,2.32,18,18,0,0,0,2.94,4,22.75,22.75,0,0,0,3.84,3.08,20.85,20.85,0,0,0,4.35,2.13Z" transform="translate(0 3.04)"/><path class="cls-5" d="M268.49,311.38c.6-2.1,1.25-4.17,1.95-6.23.35-1,.72-2,1.12-3.06a23.27,23.27,0,0,1,1.34-3,24.35,24.35,0,0,0-.87,3.11c-.23,1-.44,2.11-.62,3.17-.37,2.12-.69,4.26-1,6.38Z" transform="translate(0 3.04)"/><path class="cls-5" d="M266.24,313.2c-.88-2-1.8-3.91-2.77-5.83-.49-1-1-1.91-1.52-2.85a24.18,24.18,0,0,0-1.73-2.73,25.12,25.12,0,0,1,2.15,2.45c.67.85,1.32,1.73,1.95,2.61,1.27,1.77,2.49,3.56,3.68,5.4Z" transform="translate(0 3.04)"/><path class="cls-5" d="M266,302.58c.19-1,.43-1.88.7-2.81s.6-1.82,1-2.7a12.56,12.56,0,0,1,3.21-4.68,12.3,12.3,0,0,0-2.74,4.86,27.11,27.11,0,0,0-1.16,5.46Z" transform="translate(0 3.04)"/><path class="cls-5" d="M265.66,302.32q0-3.18-.13-6.38c-.06-1.06-.12-2.12-.23-3.18a12.05,12.05,0,0,0-.65-3.1,11.53,11.53,0,0,1,.89,3.07c.2,1,.35,2.11.49,3.17.27,2.12.47,4.25.63,6.39Z" transform="translate(0 3.04)"/><path class="cls-5" d="M265.36,301.63a16.92,16.92,0,0,0-1-2.33,14.83,14.83,0,0,0-1.34-2.18,7.93,7.93,0,0,0-4-3.07,8.13,8.13,0,0,1,4.41,2.76,15.1,15.1,0,0,1,1.6,2.12,18.37,18.37,0,0,1,1.3,2.35Z" transform="translate(0 3.04)"/><polygon class="cls-5" points="500.92 391.55 499.29 393.59 494.56 398.81 490.15 401.42 485.17 408.36 482.48 413.58 479.05 419.78 478.4 421.25 480.38 424.93 481.58 430.56 481.99 434.96 481 437.65 479.54 434.3 479.54 431.78 477.58 426.88 477.58 424.76 474.89 429 473.01 436.84 459.47 452.51 458.57 454.24 462.32 467.03 463.3 468.09 461.72 470.17 458.98 468.74 458.57 466.21 458.57 464.18 458 461.56 457.35 458.41 456.86 455.85 455.63 455.2 449.59 458.41 448.88 455.42 453.76 453 456.27 452.02 460.94 446.88 464.69 442.63 466.57 439.78 469.1 436.59 470.01 432.19 470.01 430.13 470.01 428.92 465.26 432.02 455.63 434.3 455.39 431.73 462.73 430.13 464.44 429.66 469.34 426.23 472.44 425.66 474.9 421.25 476.2 417.99 479.7 412.69 481.5 409.34 483.05 406.4 484.11 404.93 484.44 403.3 483.87 402.24 483.62 401.1 478.24 404.28 458.49 411.22 452.61 414.36 442.66 416.76 439.31 417.16 436.21 423.54 421.69 434.72 420.22 435.21 420.22 439.2 413.12 449.16 410.92 448.26 416.3 440.76 417.36 438.96 417.36 436.59 407.57 438.8 404.5 439.29 394.68 434.3 396.47 432.27 404.71 436.51 407.24 436.19 416.71 434.3 420.71 432.68 430.17 425.09 433.76 422.4 434.58 418.81 434.74 417.16 426.01 418.56 415.88 419.46 408.55 418.89 402.59 418.64 396.47 418.4 389.94 417.16 378.11 414.36 372.48 413.01 368.32 417.83 367.26 418.56 370.03 422.64 369.5 428.19 371.83 431.78 370.28 433.33 367.26 429.17 367.91 422.8 365.46 419.54 363.51 423.7 361.29 422.56 363.51 418.81 365.46 417.74 369.46 412.85 364.08 411.54 360 410.19 357.12 409.01 355.26 408.44 352.74 410.19 329.32 413.58 321.73 410.19 322.3 407.87 329.4 410.89 351.35 407.79 353.31 406.65 347.43 402.89 354.29 403.55 351.92 401.59 350.04 398 348.82 396.74 349.42 393.18 342.54 381.92 331.2 373.27 333.07 371.74 343.84 379.72 351.59 391.88 352.08 379.07 354.12 379.31 353.59 392.12 352.65 396.74 354.29 400.44 361.71 404.85 364 406.65 368.65 409.1 373.13 410.97 379.91 413.01 393.45 415.54 404.55 416.68 420.54 416.6 432.7 415.7 443.46 413.91 453.18 411.71 461.26 409.18 454.33 407.79 430.66 400.12 418.91 408.2 395 411.46 395.17 408.93 413.44 406.03 397.37 400.12 399.25 397.51 416.95 403.87 428.38 396.74 430.25 395.3 443.46 399.87 438.09 391.37 441.24 390.49 448.7 401.67 451.06 403.14 456.61 405.1 462.65 406.03 465.26 405.83 475.54 402 479.13 398.65 490.07 394.57 492.43 393.51 492.35 392.61 477.91 388.78 478.97 386.65 494.31 390.82 497.9 390.98 500.92 391.55"/><path class="cls-5" d="M282.35,333.19a15.45,15.45,0,0,1,0-5.51,14.8,14.8,0,0,1,1.93-5.11,27.93,27.93,0,0,0,2.34-4.75,24.5,24.5,0,0,0,1.34-5.11l.36,0a24.94,24.94,0,0,1-1.21,5.26,28.65,28.65,0,0,1-2.25,4.91,14.53,14.53,0,0,0-1.68,4.91,14.77,14.77,0,0,0,.09,5.14Z" transform="translate(0 3.04)"/><path class="cls-5" d="M290.65,356a29.58,29.58,0,0,1-6.26-1.41,14.09,14.09,0,0,1-5.52-3.29,3.6,3.6,0,0,1-.54-.63c-.15-.22-.33-.44-.47-.66-.28-.44-.56-.88-.86-1.31-.6-.86-1.22-1.7-1.88-2.51a48,48,0,0,0-4.28-4.62h0a10,10,0,0,0-4.43-1.66,9.19,9.19,0,0,0-2.4,0,10,10,0,0,0-2.32.65,10,10,0,0,1,2.31-.71,8.56,8.56,0,0,1,2.42-.11,10.29,10.29,0,0,1,4.59,1.58h0a48.59,48.59,0,0,1,4.44,4.52c.69.8,1.35,1.64,2,2.49.31.43.61.87.91,1.31.15.22.31.4.46.6a3.41,3.41,0,0,0,.5.57,13.36,13.36,0,0,0,5.33,3,28.84,28.84,0,0,0,6.08,1.2Z" transform="translate(0 3.04)"/><path class="cls-5" d="M305.65,366.66a29.25,29.25,0,0,0,.47-9.22,24.89,24.89,0,0,0-1-4.56l-1.28-4.47c.49,1.37,1,2.94,1.52,4.39a25.49,25.49,0,0,1,1.24,4.57,27.81,27.81,0,0,1,.38,4.74,28.56,28.56,0,0,1-.37,4.77Z" transform="translate(0 3.04)"/><path class="cls-5" d="M303.9,372.19c-1.3.06-2.62.2-3.91.38a17.51,17.51,0,0,0-3.81.92,4.73,4.73,0,0,0-.83.45,2.88,2.88,0,0,1-.94.44,7.05,7.05,0,0,1-2,.16,19.17,19.17,0,0,1-3.91-.68h0c-.47-.26-.95-.5-1.43-.72-.25-.11-.49-.22-.74-.31s-.48-.34-.89.22l.26-1c.1.7.38.61.63.73l.74.31c.49.22,1,.45,1.44.71h0a17.18,17.18,0,0,0,3.9.58,6,6,0,0,0,1.94-.23,2.7,2.7,0,0,0,.82-.44,5.39,5.39,0,0,1,.88-.55,22.27,22.27,0,0,1,3.82-1.2c1.29-.32,2.6-.55,3.92-.8Z" transform="translate(0 3.04)"/><path class="cls-5" d="M317.61,383.27a49,49,0,0,0-6.72,2.78,22.29,22.29,0,0,0-5.92,4.12c-.44.43-.73.92-1.17,1.4a4.41,4.41,0,0,1-1.46,1.22,6,6,0,0,1-3.7.38,18.65,18.65,0,0,1-6.7-3h0c-.67-.15-1.35-.28-2-.37a7.83,7.83,0,0,0-2.05-.06,7.83,7.83,0,0,1,2.05.06c.68.09,1.36.22,2,.37h0a18.4,18.4,0,0,0,6.74,2.73,5.59,5.59,0,0,0,3.48-.47c1.07-.54,1.59-1.66,2.44-2.61a22.66,22.66,0,0,1,5.94-4.45,49,49,0,0,1,6.76-3.07Z" transform="translate(0 3.04)"/><path class="cls-5" d="M321,380.63a25.93,25.93,0,0,0,.43-4.24,26.89,26.89,0,0,0-.22-4.3,24.38,24.38,0,0,0-1-4.2l-.63-2.09-.32-1-.16-.52-.09-.26,0-.12a.4.4,0,0,1,0,.13c0-.05,0-.08,0-.14a1.39,1.39,0,0,1,.06.13l.1.25.19.51.38,1,.75,2.05a25,25,0,0,1,1.23,4.2,27.82,27.82,0,0,1,.48,4.37,25.37,25.37,0,0,1-.2,4.43Z" transform="translate(0 3.04)"/><circle class="cls-5" cx="261.89" cy="277.27" r="4.41"/><circle class="cls-5" cx="506.17" cy="386.54" r="4.41"/><circle class="cls-5" cx="261.89" cy="267.89" r="3.19"/><circle class="cls-5" cx="514.6" cy="379.53" r="3.19"/><circle class="cls-5" cx="261.89" cy="260.18" r="2.34"/><circle class="cls-5" cx="315.23" cy="154.41" r="3.73"/><circle class="cls-5" cx="321.55" cy="149.62" r="2.69"/><circle class="cls-5" cx="326.74" cy="145.68" r="1.98"/><circle class="cls-5" cx="561.13" cy="306.89" r="3.18"/><circle class="cls-5" cx="562.16" cy="300.2" r="2.3"/><circle class="cls-5" cx="563.01" cy="294.71" r="1.69"/><circle class="cls-5" cx="521.57" cy="373.22" r="2.34"/></g><g id="Muse_journo" data-name="Muse journo"><path class="cls-5" d="M371.75,129.66c-1.84-6.17-3.43-11.94-4.24-15.13l-.07,0c-.3,10.81-.17,21.63.31,32.44l-2.45.95q-10-12.74-21.08-24.48l-.13.07c1.88,3.32,5.23,10,7.6,15l6,12.69c-.91.43-1.37.65-2.27,1.1q-7.26-14.72-14.51-29.44c1.7-.83,2.55-1.23,4.25-2a150.77,150.77,0,0,1,20.39,23.59l.05,0a155.48,155.48,0,0,1-.3-31.33c1.75-.55,2.62-.81,4.37-1.31q4.41,15.81,8.83,31.62c-.95.27-1.43.41-2.37.7C374.35,138.36,373.49,135.46,371.75,129.66Z" transform="translate(0 3.04)"/><path class="cls-5" d="M386.39,108c1.57,9.2,2.35,13.8,3.92,23,.7,4.15,2.75,7.55,8,6.91s6.47-3.81,6.13-8.68c-.65-9.3-1-13.94-1.61-23.23,1.15-.09,1.73-.12,2.89-.18.48,9.32.72,14,1.21,23.3.31,6-1.7,9.95-8.49,10.78-6.42.79-9.51-2.27-10.61-8.11l-4.4-23.24C384.61,108.32,385.2,108.21,386.39,108Z" transform="translate(0 3.04)"/><path class="cls-5" d="M418.23,130.23c.17,3.79,2.19,6.69,6.45,7,4.06.31,6.56-1.27,7.13-5.86.49-3.9-.84-6.21-6.2-8.88-5.56-2.77-8.45-5-8.36-9.64.07-4,3.59-7.68,10.17-7.15,7.49.61,9,5.28,8.66,8.85-1.07-.15-1.61-.22-2.68-.35,0-1.43-.09-6-6.33-6.53-4.8-.38-6.91,2.18-7,5.06-.13,3.63,1.9,5.36,6.86,7.86,6.55,3.3,8.06,6.5,7.42,11-.73,5.15-4.08,8.1-9.85,7.64-6.29-.49-8.47-4.36-8.75-9C416.73,130.19,417.23,130.2,418.23,130.23Z" transform="translate(0 3.04)"/><path class="cls-5" d="M460.67,129.41a122.53,122.53,0,0,0-12.7-3.57L444.72,140a114,114,0,0,1,12.64,3.61c-.4.71-.59,1.07-1,1.78a111.3,111.3,0,0,0-14.31-3.94q3.4-16.06,6.82-32.12a137.69,137.69,0,0,1,17.54,4.81c-.25.75-.37,1.13-.62,1.89a138.46,138.46,0,0,0-14.62-4.14c-1.11,4.81-1.66,7.22-2.77,12a125.84,125.84,0,0,1,12.87,3.62Z" transform="translate(0 3.04)"/><path class="cls-5" d="M484.28,149.83c-1.94,3.37-4.12,6.55-8.86,4.09a17.25,17.25,0,0,1-2-1.23l.86-1.74a18.67,18.67,0,0,0,1.93,1.14c2.74,1.42,4.11,0,5.82-3.13l12.42-22.55c1,.54,1.46.81,2.43,1.37Z" transform="translate(0 3.04)"/><path class="cls-5" d="M514.51,160.19c-7.12,7.95-13.12,11.07-18.71,6.74-5.39-4.16-4.1-10.56,1.92-19.56s12.41-11.93,18.82-7C523.3,145.62,521.82,152,514.51,160.19ZM500,148.78c-5.91,8.5-6.58,13.77-2.86,16.64s8.62.9,15.34-6.86c7-8.15,7.32-13.16,2.83-16.63S505.64,140.6,500,148.78Z" transform="translate(0 3.04)"/><path class="cls-5" d="M535.77,158.43l-17,15.93c-3.07,2.87-4.85,6.39-1.54,10.25s6.61,3.1,10.48.13l18.45-14.2c.69.89,1,1.34,1.7,2.24L529.11,186.7c-4.84,3.59-9.22,4.12-13.5-.87-4.05-4.73-3.08-8.89,1.19-13l17-16.45C534.59,157.18,535,157.6,535.77,158.43Z" transform="translate(0 3.04)"/><path class="cls-5" d="M542.34,195l-13.57,8.16c-.47-.78-.71-1.17-1.19-1.94l27.86-17.4c2.13,3.4,3.15,5.14,5.09,8.68,3.31,6.08,1.82,10.57-2.74,12.7s-7.67.45-9.45-1.55c.93,4.05-1.46,6.18-5.49,8.07l-1.18.55a32.67,32.67,0,0,0-6.2,3.48c-.4-.87-.61-1.31-1-2.17,1.14-1.07,3.94-2.45,6.24-3.58l1-.47c4.37-2.14,6.42-4.39,3.61-9.48C544.13,198.05,543.54,197,542.34,195Zm1.71-1c1.26,2.1,1.88,3.16,3.06,5.32,2.48,4.51,5.71,5.09,9.42,3.27,3.24-1.57,4.68-4.68,2.15-9.3-1.34-2.44-2-3.64-3.46-6Z" transform="translate(0 3.04)"/><path class="cls-5" d="M539.27,224.85,570,213.25c.58,1.53.85,2.3,1.39,3.84a180.35,180.35,0,0,1-24.32,23v.06q6.79-2,14.53-3.87L576,232.77c.28,1.17.42,1.76.68,2.95l-32,7.16c-.27-1.25-.42-1.87-.72-3.1a238.55,238.55,0,0,0,24.93-23.37l0-.06C565,218.06,559.62,220,554,222l-14,5C539.75,226.15,539.59,225.72,539.27,224.85Z" transform="translate(0 3.04)"/><path class="cls-5" d="M564.4,274c-10.68-.14-16.92-3-17.41-10.81-.48-7.53,5.11-11,15.82-12.55s17.24,1.5,17.8,10.47C581.2,270.56,575.35,274.15,564.4,274Zm-1.12-20.53c-10.28,1.28-14.62,4.51-14.3,9.7s5,7.92,15.29,7.85c10.77-.07,14.74-3.58,14.35-9.85S573.17,252.24,563.28,253.47Z" transform="translate(0 3.04)"/></g></svg>